<?xml version="1.0" encoding="utf-8"?>
<!-- Generator: Adobe Illustrator 16.0.4, SVG Export Plug-In . SVG Version: 6.00 Build 0)  -->
<!DOCTYPE svg PUBLIC "-//W3C//DTD SVG 1.1//EN" "http://www.w3.org/Graphics/SVG/1.1/DTD/svg11.dtd">
<svg version="1.1" id="Layer_1" xmlns="http://www.w3.org/2000/svg" xmlns:xlink="http://www.w3.org/1999/xlink" x="0px" y="0px"
	 width="1000px" height="157px" viewBox="0 0 1000 157" enable-background="new 0 0 1000 157" xml:space="preserve">
<rect x="581" y="80" fill="#0080C6" width="422" height="65"/>
<rect y="15" fill="#1B1D35" width="609" height="90.04"/>
<g>
	<path fill="#F1F2F2" d="M45.76,78.003v-4.644c-1.955,2.902-4.712,5.224-9.022,5.224c-6.215,0-12.281-5.224-12.281-14.51
		c0-9.287,5.965-14.511,12.281-14.511c4.361,0,7.118,2.322,9.022,4.907V39.484h6.065v38.519H45.76z M38.191,55.103
		c-4.161,0-7.619,3.377-7.619,8.97c0,5.487,3.509,8.97,7.619,8.97c4.06,0,7.669-3.535,7.669-8.97
		C45.86,58.638,42.251,55.103,38.191,55.103z"/>
	<path fill="#F1F2F2" d="M74.931,78.003v-3.43c-1.805,2.269-4.562,4.01-8.571,4.01c-5.013,0-9.424-3.008-9.424-8.601v-0.105
		c0-6.015,4.562-8.97,10.727-8.97c3.208,0,5.263,0.475,7.318,1.161v-0.686c0-3.852-2.306-5.962-6.516-5.962
		c-2.958,0-5.163,0.686-7.569,1.741l-1.654-5.118c2.907-1.372,5.765-2.322,10.075-2.322c7.82,0,11.629,4.327,11.629,11.767v16.516
		H74.931z M75.081,66.184c-1.554-0.633-3.709-1.108-6.065-1.108c-3.809,0-6.065,1.636-6.065,4.485v0.105
		c0,2.638,2.256,4.116,5.113,4.116c4.01,0,7.018-2.375,7.018-5.857V66.184z"/>
	<path fill="#F1F2F2" d="M87.36,45.869v-6.068h6.516v6.068H87.36z M87.61,78.003v-27.86h6.065v27.86H87.61z"/>
	<path fill="#F1F2F2" d="M100.742,78.003V39.484h6.065v38.519H100.742z"/>
	<path fill="#F1F2F2" d="M127.508,78.794c-2.105,5.699-4.461,7.809-8.722,7.809c-2.557,0-4.411-0.633-6.266-1.688l2.055-4.749
		c1.103,0.633,2.306,1.055,3.559,1.055c1.705,0,2.757-0.792,3.759-3.219l-11.027-27.86h6.466l7.519,20.684l6.867-20.684h6.316
		L127.508,78.794z"/>
	<path fill="#F1F2F2" d="M172.016,78.583c-4.361,0-7.118-2.322-8.973-4.907v4.327h-6.065V39.484h6.065v15.302
		c1.955-2.902,4.712-5.224,8.973-5.224c6.266,0,12.331,5.224,12.331,14.511C184.347,73.359,178.332,78.583,172.016,78.583z
		 M170.612,55.103c-4.11,0-7.719,3.535-7.719,8.97c0,5.435,3.609,8.97,7.719,8.97c4.161,0,7.569-3.43,7.569-8.97
		C178.181,58.585,174.723,55.103,170.612,55.103z"/>
	<path fill="#F1F2F2" d="M195.923,78.003h-6.065v-27.86h6.065v6.279c1.654-4.168,4.712-7.018,9.374-6.807v6.754h-0.351
		c-5.313,0-9.022,3.641-9.022,11.028V78.003z"/>
	<path fill="#F1F2F2" d="M226.85,50.143h6.065v27.86h-6.065v-4.327c-1.705,2.638-4.161,4.907-8.271,4.907
		c-5.965,0-9.423-4.221-9.423-10.711V50.143h6.065v15.83c0,4.327,2.055,6.807,5.665,6.807c3.508,0,5.965-2.585,5.965-6.912V50.143z"
		/>
	<path fill="#F1F2F2" d="M239.68,45.869v-6.068h6.517v6.068H239.68z M239.93,78.003v-27.86h6.065v27.86H239.93z"/>
	<path fill="#F1F2F2" d="M258.977,78.003h-6.065v-27.86h6.065v4.327c1.705-2.638,4.161-4.907,8.271-4.907
		c5.965,0,9.423,4.221,9.423,10.711v17.729h-6.065v-15.83c0-4.327-2.055-6.807-5.665-6.807c-3.509,0-5.965,2.585-5.965,6.912V78.003
		z"/>
	<path fill="#F1F2F2" d="M322.732,78.742l-4.662-5.013c-3.007,2.955-6.516,4.802-10.777,4.802c-6.516,0-11.428-4.116-11.428-10.606
		c0-4.802,2.656-8.231,7.468-10.395c-2.005-2.744-2.907-5.013-2.907-7.756c0-5.013,3.81-9.339,10.075-9.339
		c5.564,0,9.323,3.904,9.323,8.97c0,4.907-3.058,7.809-7.719,9.656l6.015,6.437c1.354-2.11,2.606-4.538,3.759-7.123l4.662,2.585
		c-1.403,2.955-2.957,5.857-4.762,8.442l5.514,5.91L322.732,78.742z M306.743,61.54c-3.258,1.478-4.662,3.747-4.662,6.174
		c0,3.166,2.456,5.435,5.865,5.435c2.406,0,4.611-1.213,6.616-3.219L306.743,61.54z M310.352,45.553c-2.506,0-4.16,1.847-4.16,4.485
		c0,1.899,0.702,3.271,2.657,5.54c3.609-1.372,5.514-3.06,5.514-5.804C314.362,47.188,312.708,45.553,310.352,45.553z"/>
	<path fill="#F1F2F2" d="M361.426,78.583c-4.361,0-7.118-2.322-8.973-4.907v4.327h-6.065V39.484h6.065v15.302
		c1.955-2.902,4.712-5.224,8.973-5.224c6.266,0,12.331,5.224,12.331,14.511C373.757,73.359,367.742,78.583,361.426,78.583z
		 M360.022,55.103c-4.11,0-7.719,3.535-7.719,8.97c0,5.435,3.609,8.97,7.719,8.97c4.161,0,7.569-3.43,7.569-8.97
		C367.591,58.585,364.133,55.103,360.022,55.103z"/>
	<path fill="#F1F2F2" d="M385.334,78.003h-6.065v-27.86h6.065v6.279c1.654-4.168,4.712-7.018,9.374-6.807v6.754h-0.351
		c-5.313,0-9.022,3.641-9.022,11.028V78.003z"/>
	<path fill="#F1F2F2" d="M416.26,50.143h6.065v27.86h-6.065v-4.327c-1.705,2.638-4.161,4.907-8.271,4.907
		c-5.965,0-9.423-4.221-9.423-10.711V50.143h6.065v15.83c0,4.327,2.055,6.807,5.665,6.807c3.508,0,5.965-2.585,5.965-6.912V50.143z"
		/>
	<path fill="#F1F2F2" d="M429.04,45.869v-6.068h6.516v6.068H429.04z M429.29,78.003v-27.86h6.065v27.86H429.29z"/>
	<path fill="#F1F2F2" d="M448.337,78.003h-6.065v-27.86h6.065v4.327c1.705-2.638,4.161-4.907,8.271-4.907
		c5.965,0,9.423,4.221,9.423,10.711v17.729h-6.065v-15.83c0-4.327-2.055-6.807-5.665-6.807c-3.509,0-5.965,2.585-5.965,6.912V78.003
		z"/>
	<path fill="#F1F2F2" d="M497.909,69.244l5.413-19.101h6.065l-8.672,28.071h-5.413l-5.915-19.048l-5.965,19.048h-5.414
		l-8.571-28.071h6.215l5.313,19.101l5.864-19.207h5.163L497.909,69.244z"/>
	<path fill="#F1F2F2" d="M529.285,78.003v-3.43c-1.805,2.269-4.562,4.01-8.571,4.01c-5.013,0-9.424-3.008-9.424-8.601v-0.105
		c0-6.015,4.562-8.97,10.727-8.97c3.208,0,5.264,0.475,7.318,1.161v-0.686c0-3.852-2.306-5.962-6.516-5.962
		c-2.958,0-5.163,0.686-7.569,1.741l-1.654-5.118c2.907-1.372,5.765-2.322,10.075-2.322c7.819,0,11.629,4.327,11.629,11.767v16.516
		H529.285z M529.436,66.184c-1.554-0.633-3.709-1.108-6.065-1.108c-3.81,0-6.065,1.636-6.065,4.485v0.105
		c0,2.638,2.256,4.116,5.113,4.116c4.01,0,7.018-2.375,7.018-5.857V66.184z"/>
	<path fill="#F1F2F2" d="M542.064,78.003V39.484h6.065v38.519H542.064z"/>
	<path fill="#F1F2F2" d="M579.758,78.003h-7.018l-7.97-12.03l-3.709,4.063v7.967h-6.065V39.484h6.065V62.49l10.978-12.347h7.368
		l-10.526,11.344L579.758,78.003z"/>
</g>
<g>
	<path fill="#F1F2F2" d="M644.127,125.458h-4.477v-20.561h4.477v4.634c1.222-3.076,3.479-5.179,6.92-5.023v4.984h-0.259
		c-3.923,0-6.661,2.687-6.661,8.139V125.458z"/>
	<path fill="#F1F2F2" d="M663.108,122.07c2.184,0,3.737-0.857,5.291-2.453l2.628,2.453c-1.851,2.336-4.403,3.855-7.993,3.855
		c-5.661,0-10.027-4.322-10.027-10.708c0-5.919,3.959-10.748,9.547-10.748c6.216,0,9.361,5.14,9.361,11.098
		c0,0.428-0.037,0.817-0.074,1.285h-14.356C658.002,120.201,660.223,122.07,663.108,122.07z M667.475,113.737
		c-0.296-3.037-1.998-5.413-4.958-5.413c-2.738,0-4.662,2.22-5.069,5.413H667.475z"/>
	<path fill="#F1F2F2" d="M686.122,105.053v3.894h-5.106v16.511h-4.477v-16.511h-2.479v-3.933h2.479v-1.479
		c0-4.517,2.146-6.737,5.994-6.737c1.554,0,2.627,0.233,3.626,0.545v3.972c-0.888-0.312-1.665-0.506-2.627-0.506
		c-1.702,0-2.59,0.974-2.59,3.115v1.129H686.122z"/>
	<path fill="#F1F2F2" d="M697.813,122.07c2.184,0,3.737-0.857,5.291-2.453l2.628,2.453c-1.851,2.336-4.403,3.855-7.993,3.855
		c-5.661,0-10.027-4.322-10.027-10.708c0-5.919,3.959-10.748,9.547-10.748c6.216,0,9.361,5.14,9.361,11.098
		c0,0.428-0.037,0.817-0.074,1.285h-14.356C692.707,120.201,694.928,122.07,697.813,122.07z M702.18,113.737
		c-0.296-3.037-1.998-5.413-4.958-5.413c-2.738,0-4.662,2.22-5.069,5.413H702.18z"/>
	<path fill="#F1F2F2" d="M715.166,125.458h-4.477v-20.561h4.477v4.634c1.222-3.076,3.479-5.179,6.92-5.023v4.984h-0.259
		c-3.923,0-6.661,2.687-6.661,8.139V125.458z"/>
	<path fill="#F1F2F2" d="M734.147,122.07c2.184,0,3.737-0.857,5.291-2.453l2.628,2.453c-1.851,2.336-4.403,3.855-7.993,3.855
		c-5.661,0-10.027-4.322-10.027-10.708c0-5.919,3.959-10.748,9.547-10.748c6.216,0,9.361,5.14,9.361,11.098
		c0,0.428-0.037,0.817-0.074,1.285h-14.356C729.041,120.201,731.262,122.07,734.147,122.07z M738.514,113.737
		c-0.296-3.037-1.998-5.413-4.958-5.413c-2.738,0-4.662,2.22-5.069,5.413H738.514z"/>
	<path fill="#F1F2F2" d="M751.499,125.458h-4.477v-20.561h4.477v3.193c1.259-1.947,3.071-3.622,6.105-3.622
		c4.403,0,6.957,3.115,6.957,7.905v13.084h-4.478v-11.682c0-3.193-1.517-5.023-4.182-5.023c-2.59,0-4.403,1.908-4.403,5.101V125.458
		z"/>
	<path fill="#F1F2F2" d="M784.245,125.458v-3.427c-1.443,2.142-3.479,3.855-6.66,3.855c-4.589,0-9.065-3.855-9.065-10.708
		s4.403-10.708,9.065-10.708c3.219,0,5.254,1.713,6.66,3.622v-11.06h4.478v28.427H784.245z M778.658,108.558
		c-3.071,0-5.625,2.492-5.625,6.62c0,4.05,2.591,6.62,5.625,6.62c2.997,0,5.661-2.609,5.661-6.62S781.655,108.558,778.658,108.558z"
		/>
	<path fill="#F1F2F2" d="M806.778,104.897h4.478v20.561h-4.478v-3.193c-1.259,1.947-3.071,3.622-6.105,3.622
		c-4.403,0-6.957-3.115-6.957-7.905v-13.084h4.478v11.682c0,3.193,1.518,5.023,4.182,5.023c2.59,0,4.403-1.908,4.403-5.101V104.897z
		"/>
	<path fill="#F1F2F2" d="M839.264,104.469c4.256,0,6.846,2.842,6.846,7.866v13.123h-4.478v-11.682c0-3.271-1.443-5.023-3.959-5.023
		c-2.442,0-4.182,1.792-4.182,5.101v11.604h-4.478v-11.721c0-3.193-1.479-4.984-3.959-4.984s-4.182,1.947-4.182,5.14v11.565h-4.477
		v-20.561h4.477v3.115c1.259-1.83,2.961-3.543,5.958-3.543c2.812,0,4.773,1.441,5.81,3.622
		C834.231,105.91,836.304,104.469,839.264,104.469z"/>
	<path fill="#F1F2F2" d="M864.274,106.183l-3.219-2.648c2.479-3.661,4.921-5.724,9.546-5.724c5.181,0,8.548,3.31,8.548,8.177
		c0,4.322-2.146,6.659-6.734,10.592l-5.328,4.673h12.321v4.206h-18.723v-3.777l8.917-7.982c3.553-3.154,4.848-4.907,4.848-7.36
		c0-2.687-1.813-4.245-4.182-4.245S866.272,103.457,864.274,106.183z"/>
	<path fill="#F1F2F2" d="M894.208,125.925c-6.809,0-11.249-6.23-11.249-14.058c0-7.827,4.514-14.135,11.322-14.135
		s11.249,6.23,11.249,14.058S901.016,125.925,894.208,125.925z M894.208,102.055c-4.034,0-6.55,4.284-6.55,9.735
		s2.59,9.813,6.623,9.813s6.55-4.323,6.55-9.735S898.241,102.055,894.208,102.055z"/>
	<path fill="#F1F2F2" d="M914.446,98.005h3.182v27.453h-4.514v-22.585l-4.663,1.363l-0.962-3.894L914.446,98.005z"/>
	<path fill="#F1F2F2" d="M939.681,104.469c-1.813-1.48-3.367-2.375-5.625-2.375c-3.848,0-5.994,3.66-6.216,8.645
		c1.369-1.401,3.145-2.726,6.18-2.726c5.032,0,9.065,3.115,9.065,8.606s-4.182,9.307-9.621,9.307c-3.182,0-5.477-1.051-7.216-2.843
		c-1.961-2.103-3.145-4.945-3.145-10.475c0-8.372,3.774-14.875,11.101-14.875c3.367,0,5.661,1.129,7.919,3.037L939.681,104.469z
		 M933.242,112.023c-3.22,0-5.255,2.181-5.255,4.829c0,2.843,2.109,4.946,5.365,4.946c3.22,0,5.181-2.142,5.181-4.984
		C938.533,114.048,936.461,112.023,933.242,112.023z"/>
</g>
</svg>
